Yogi Bear (2010)(1080p)






Verenigde Staten / Nieuw-Zeeland

Animatie / Avontuur

80 minuten

geregisseerd door Eric Brevig

met de stemmen van Dan Akroyd, Justin Timberlake en Anna Faris

Yogi is een beer die in het Yellystone Park woont. 
Daar staat hij bekend bekend vanwege zijn talloze pogingen om picknick-mandjes 
te stelen van kampeerders. Dit tot groot ongenoegen van Park Ranger Smith. Yogi 
wordt altijd bijgestaan door de jonge beer Boo-Boo. Wanneer Yogi erachter komt 
dat de gierige Mayor Brown het Yellystone Park voor eens en altijd wil sluiten, 
moet hij een team vormen met Boo-Boo én oude vijand Ranger Smith om dit 
tegen te gaan, anders zullen families nooit meer kunnen genieten van de 
natuur en raken Yogi en Boo-Boo hun ''thuis'' kwijt. Tijdens het avontuur 
maken ze kennis met Rachel, een natuurdocumentaire-maker, die Yogi 
en Boo-Boo probeert te filmen voor haar volgende film.
  
http://www.moviemeter.nl/film/68045
---------------------------------------------------------------------------------
PLOT

A documentary filmmaker travels to Jellystone Park to shoot a project and soon 
crosses paths with Yogi Bear, his sidekick Boo-Boo, and Ranger Smith. 
  
http://www.imdb.com/title/tt1302067/
---------------------------------------------------------------------------------
Info

Source..............: Yogi.Bear.1080p.x264-CROSSBOW
Compressie..........: x264 MKV
Audio...............: English, DTS & DD5.1
Subs................: Nederlands & Engels
Vertaling...........: Noppes
Bewerking...........: Bradje



Media INFO
Complete name                    : Yogi Bear (2010) 1080P NL subzz\Yogi Bear (2010) 1080P.X264.NL.SUBBED.Bradje\Yogi Bear (2010) 1080P.X264.NL.SUBBED.Bradje.mkv
Format                           : Matroska
File size                        : 6.91 GiB
Duration                         : 1h 20mn
Overall bit rate                 : 12.3 Mbps
Movie name                       : Yogi Bear (2010) 1080P.X264.NL.SUBBED.Bradje
Encoded date                     : UTC 2011-03-04 13:44:19
Writing application              : mkvmerge v3.3.0 ('Language') built on Mar 24 2010 14:59:24
Writing library                  : libebml v0.8.0 + libmatroska v0.9.0

Video
ID                               : 1
Format                           : AVC
Format/Info                      : Advanced Video Codec
Format profile                   : High@L4.1
Format settings, CABAC           : Yes
Format settings, ReFrames        : 4 frames
Muxing mode                      : Container profile=Unknown@4.1
Codec ID                         : V_MPEG4/ISO/AVC
Duration                         : 1h 20mn
Bit rate                         : 10.2 Mbps
Width                            : 1 920 pixels
Height                           : 1 080 pixels
Display aspect ratio             : 16:9
Frame rate                       : 23.976 fps
Color space                      : YUV
Chroma subsampling               : 4:2:0
Bit depth                        : 8 bits
Scan type                        : Progressive
Bits/(Pixel*Frame)               : 0.205
Stream size                      : 5.57 GiB (81%)
Title                            : x264
Writing library                  : x264 core 114 r1913 5fd3dce
Encoding settings                : cabac=1 / ref=4 / deblock=1:0:0 / analyse=0x3:0x133 / me=umh / subme=8 / psy=1 / psy_rd=1.00:0.00 / mixed_ref=1 / me_range=16 / chroma_me=1 / trellis=1 / 8x8dct=1 / cqm=0 / deadzone=21,11 / fast_pskip=1 / chroma_qp_offset=-2 / threads=6 / sliced_threads=0 / nr=0 / decimate=1 / interlaced=0 / constrained_intra=0 / bframes=3 / b_pyramid=2 / b_adapt=2 / b_bias=0 / direct=3 / weightb=1 / open_gop=0 / weightp=2 / keyint=250 / keyint_min=23 / scenecut=40 / intra_refresh=0 / rc_lookahead=50 / rc=2pass / mbtree=1 / bitrate=10169 / ratetol=1.0 / qcomp=0.60 / qpmin=0 / qpmax=69 / qpstep=4 / cplxblur=20.0 / qblur=0.5 / ip_ratio=1.40 / aq=1:1.00
Language                         : English

Audio #1
ID                               : 2
Format                           : AC-3
Format/Info                      : Audio Coding 3
Mode extension                   : CM (complete main)
Codec ID                         : A_AC3
Duration                         : 1h 20mn
Bit rate mode                    : Constant
Bit rate                         : 640 Kbps
Channel(s)                       : 6 channels
Channel positions                : Front: L C R, Side: L R, LFE
Sampling rate                    : 48.0 KHz
Bit depth                        : 16 bits
Stream size                      : 368 MiB (5%)
Title                            : AC3
Language                         : English

Audio #2
ID                               : 3
Format                           : DTS
Format/Info                      : Digital Theater Systems
Codec ID                         : A_DTS
Duration                         : 1h 20mn
Bit rate mode                    : Constant
Bit rate                         : 1 510 Kbps
Channel(s)                       : 6 channels
Channel positions                : Front: L C R, Side: L R, LFE
Sampling rate                    : 48.0 KHz
Bit depth                        : 24 bits
Stream size                      : 868 MiB (12%)
Title                            : DTS
Language                         : English

Text #1
ID                               : 4
Format                           : UTF-8
Codec ID                         : S_TEXT/UTF8
Codec ID/Info                    : UTF-8 Plain Text
Title                            : Subtitles
Language                         : Dutch

Text #2
ID                               : 5
Format                           : UTF-8
Codec ID                         : S_TEXT/UTF8
Codec ID/Info                    : UTF-8 Plain Text
Title                            : Subtitles
Language                         : English



TBS
